<?xml version="1.0" standalone="no"?>
<!DOCTYPE svg PUBLIC "-//W3C//DTD SVG 20010904//EN"
 "http://www.w3.org/TR/2001/REC-SVG-20010904/DTD/svg10.dtd">
<svg version="1.0" xmlns="http://www.w3.org/2000/svg"
 width="766.000000pt" height="1280.000000pt" viewBox="0 0 766.000000 1280.000000"
 preserveAspectRatio="xMidYMid meet">
<metadata>
Created by potrace 1.15, written by Peter Selinger 2001-2017
</metadata>
<g transform="translate(0.000000,1280.000000) scale(0.100000,-0.100000)"
fill="#000000" stroke="none">
<path d="M3590 12793 c-161 -11 -488 -50 -582 -69 -20 -4 -59 -47 -156 -172
-72 -92 -167 -203 -211 -247 l-81 -80 0 -100 -1 -100 -189 -229 c-122 -147
-207 -240 -237 -261 -61 -41 -135 -120 -164 -176 -19 -35 -24 -60 -24 -124 0
-91 18 -134 79 -197 l36 -37 -30 -49 c-46 -76 -62 -122 -62 -183 0 -92 46
-161 128 -191 l33 -12 -45 -48 c-57 -61 -83 -119 -84 -184 0 -68 38 -142 103
-198 l50 -45 -37 -42 c-90 -99 -101 -215 -28 -292 15 -16 39 -35 54 -43 l27
-14 -49 -78 -49 -77 14 -155 c8 -85 14 -172 15 -192 l0 -37 -93 -21 c-52 -12
-99 -25 -106 -29 -13 -8 -121 -629 -226 -1296 -30 -192 -58 -363 -61 -380 -4
-16 -3 -27 0 -24 8 8 157 483 302 964 58 193 119 393 135 446 l29 95 147 17
c921 109 1874 75 2818 -99 105 -20 204 -38 221 -41 30 -5 33 -9 64 -112 114
-375 246 -1013 295 -1433 6 -49 35 -107 222 -445 577 -1043 775 -1438 854
-1710 17 -59 49 -167 70 -239 163 -545 180 -1056 55 -1587 -142 -599 -516
-1237 -1003 -1708 -148 -143 -500 -367 -818 -520 -482 -231 -883 -329 -1350
-329 -388 0 -697 60 -1070 207 -314 124 -584 278 -990 565 -568 401 -910 901
-1091 1597 -122 470 -165 1090 -114 1651 l19 215 69 205 c97 285 331 797 534
1165 216 392 239 435 234 435 -3 0 -119 -152 -258 -337 -215 -287 -284 -387
-452 -662 -155 -254 -218 -368 -293 -530 l-95 -206 -44 -220 c-132 -667 -137
-1386 -13 -1955 170 -779 541 -1362 1189 -1870 533 -418 939 -647 1425 -803
367 -118 655 -162 1050 -161 284 1 406 12 670 64 562 111 1153 376 1720 771
82 58 153 121 280 250 372 380 622 727 834 1158 207 420 325 820 383 1291 20
161 16 612 -6 785 -40 317 -95 538 -247 998 -120 363 -374 831 -1018 1881
l-122 198 -40 197 c-119 580 -263 1060 -469 1559 -32 76 -48 104 -64 108 -21
5 -21 9 -18 183 l4 179 -53 75 -52 76 40 58 c52 74 73 137 73 217 0 77 -18
133 -66 199 -36 49 -36 51 -20 76 82 124 93 267 32 378 l-25 44 34 44 c48 63
60 107 59 210 0 103 -24 172 -94 280 -36 56 -40 67 -40 128 0 63 -2 70 -62
167 -65 106 -163 218 -334 383 -86 82 -121 108 -235 171 l-134 73 -178 259
c-97 142 -185 262 -195 265 -34 13 -260 49 -367 59 -101 9 -345 11 -455 3z
m471 -457 c57 -8 94 -18 100 -27 4 -8 75 -113 156 -233 l148 -219 150 -83
c115 -64 170 -101 233 -160 46 -42 81 -78 80 -80 -2 -2 -49 10 -103 27 -664
201 -1439 197 -2085 -10 -68 -22 -126 -39 -127 -37 -1 1 74 85 167 185 l170
183 0 80 0 81 43 41 c23 22 81 87 129 142 l86 101 144 12 c78 6 170 13 203 15
103 6 411 -5 506 -18z m1034 -1083 l0 -77 52 -65 c29 -36 48 -68 43 -69 -6 -2
-88 10 -183 27 -204 36 -405 63 -652 88 -224 22 -1008 25 -1225 5 -184 -17
-397 -41 -504 -57 l-90 -13 -60 30 c-141 70 -187 100 -176 112 7 9 74 15 227
19 120 4 398 13 618 21 220 8 654 20 965 27 311 6 630 14 710 18 80 5 174 9
210 9 l65 2 0 -77z m11 -246 c8 -7 -16 -279 -25 -289 -3 -4 -56 8 -116 27
-259 79 -527 113 -752 96 -340 -26 -816 -93 -1083 -152 -207 -46 -572 -148
-693 -195 -15 -5 -17 4 -17 90 0 82 3 97 18 105 32 17 411 118 602 160 377 83
810 143 1180 165 105 6 879 0 886 -7z m-961 -576 c264 -29 608 -27 900 5 50 5
58 4 48 -7 -7 -10 -8 -46 -2 -123 5 -60 7 -111 5 -113 -1 -2 -23 4 -47 13 -76
27 -341 92 -460 113 -684 119 -1412 49 -2009 -191 -69 -28 -155 -66 -192 -85
-38 -18 -68 -31 -68 -29 0 2 22 18 49 36 79 50 80 54 25 92 -129 89 -212 176
-184 193 48 29 780 107 1125 119 236 8 623 -3 810 -23z m1015 -444 c-14 -12
-48 -40 -74 -63 l-49 -40 83 -150 c46 -82 98 -170 116 -195 32 -44 34 -51 34
-133 0 -84 -1 -86 -22 -81 -13 2 -93 11 -178 20 -1019 98 -1889 55 -2768 -136
-101 -22 -185 -39 -187 -37 -2 2 3 73 10 158 8 85 14 164 15 175 0 11 41 67
91 124 51 56 88 106 82 110 -5 3 -27 17 -49 30 -55 34 -94 72 -94 91 0 15 22
18 182 24 101 4 293 13 428 21 625 37 1072 57 1720 76 322 9 463 15 665 27 18
1 18 -1 -5 -21z"/>
</g>
</svg>
