<?xml version="1.0" standalone="no"?>
<!DOCTYPE svg PUBLIC "-//W3C//DTD SVG 20010904//EN"
 "http://www.w3.org/TR/2001/REC-SVG-20010904/DTD/svg10.dtd">
<svg version="1.0" xmlns="http://www.w3.org/2000/svg"
 width="1280.000000pt" height="1280.000000pt" viewBox="0 0 1280.000000 1280.000000"
 preserveAspectRatio="xMidYMid meet">
<metadata>
Created by potrace 1.15, written by Peter Selinger 2001-2017
</metadata>
<g transform="translate(0.000000,1280.000000) scale(0.100000,-0.100000)"
fill="#000000" stroke="none">
<path d="M2479 12009 c-87 -13 -312 -66 -397 -95 -284 -94 -596 -324 -786
-578 -177 -236 -246 -384 -311 -666 -19 -80 -39 -189 -44 -242 -15 -133 -15
-7896 -1 -8022 24 -209 99 -472 179 -630 105 -206 294 -437 466 -571 230 -179
389 -258 654 -325 258 -65 -91 -60 4296 -60 4372 0 4031 -5 4290 59 230 57
372 121 569 259 234 164 428 390 556 647 92 185 158 422 180 647 7 69 10 1412
7 4058 -3 3717 -4 3960 -20 4040 -73 350 -141 521 -304 752 -104 149 -224 273
-364 377 -217 163 -371 237 -609 297 -279 69 80 64 -4320 63 -2192 -1 -4010
-5 -4041 -10z m7354 -1429 c260 -30 537 -213 677 -448 57 -97 107 -225 120
-307 7 -49 10 -1075 8 -3425 l-3 -3355 -29 -75 c-102 -269 -258 -450 -481
-560 -123 -60 -177 -78 -274 -91 -50 -6 -1237 -9 -3401 -7 l-3325 3 -104 37
c-304 109 -510 316 -618 623 l-28 80 0 3390 0 3390 23 70 c57 169 135 295 254
411 91 89 164 140 272 189 101 45 166 65 244 75 103 12 6560 12 6665 0z"/>
<path d="M6175 10200 c-118 -14 -374 -73 -516 -120 -108 -36 -342 -151 -474
-233 -185 -115 -376 -286 -529 -472 -84 -103 -100 -125 -181 -260 -55 -90
-150 -285 -161 -330 -4 -17 -15 -48 -25 -70 -42 -94 -71 -246 -99 -533 -23
-235 3 -592 62 -847 75 -321 156 -618 178 -650 4 -5 17 -46 29 -90 20 -72 94
-305 142 -445 18 -53 44 -176 71 -330 7 -41 12 -136 12 -210 -1 -112 -6 -155
-29 -250 -15 -63 -30 -148 -32 -188 -5 -67 -3 -79 26 -136 103 -209 475 -458
856 -573 28 -8 70 -22 95 -30 25 -8 63 -18 85 -23 22 -4 56 -13 75 -19 127
-40 527 -55 693 -26 104 18 159 36 254 82 125 60 160 119 182 306 10 85 52
228 89 297 102 195 321 449 677 785 285 269 563 550 659 665 44 52 82 97 85
100 14 12 93 123 163 230 284 430 387 1004 273 1521 -22 95 -75 281 -85 294
-4 6 -15 33 -25 60 -63 177 -207 430 -339 594 -80 100 -284 305 -365 367 -35
27 -86 66 -113 87 -27 20 -51 37 -53 37 -3 0 -26 15 -52 34 -42 29 -96 60
-243 137 -199 104 -485 190 -777 234 -108 16 -488 19 -608 5z m375 -369 c296
-40 584 -101 650 -137 14 -7 66 -29 115 -49 50 -20 107 -47 127 -61 21 -13 40
-24 43 -24 2 0 33 -18 69 -39 137 -84 333 -245 421 -347 33 -38 62 -71 66 -74
5 -4 41 -53 116 -155 12 -16 38 -57 59 -90 20 -33 44 -71 53 -85 18 -29 67
-144 121 -287 64 -170 90 -333 90 -572 0 -208 -32 -440 -70 -509 -5 -10 -27
-63 -49 -120 -22 -56 -61 -134 -86 -173 -25 -38 -45 -72 -45 -75 0 -6 -57 -86
-87 -124 -7 -8 -33 -42 -58 -75 -94 -122 -169 -201 -636 -665 -262 -261 -511
-516 -552 -566 -165 -199 -291 -428 -348 -633 -44 -157 -50 -171 -83 -188 -95
-49 -244 -65 -399 -43 -122 18 -353 73 -432 103 -36 14 -40 19 -37 47 1 17 18
79 36 138 45 142 112 405 131 515 32 189 37 313 32 760 -5 449 -14 574 -52
747 -10 44 -18 126 -18 200 -2 114 0 129 22 170 29 56 68 89 103 90 28 0 35
-7 91 -95 66 -103 154 -124 250 -61 53 35 98 56 121 56 7 0 18 -11 24 -25 24
-52 78 -114 114 -131 27 -12 49 -15 83 -10 40 7 55 17 128 91 102 104 135 119
237 110 67 -6 78 -4 102 15 57 45 45 135 -29 206 -76 75 -193 93 -329 53 l-71
-21 -65 26 c-115 46 -166 52 -289 31 l-108 -18 -66 32 c-142 67 -230 68 -362
1 -130 -66 -200 -155 -238 -301 -18 -69 -17 -220 4 -389 35 -274 52 -549 53
-820 0 -157 -2 -314 -6 -350 -3 -36 -11 -117 -16 -180 -20 -214 -70 -506 -105
-605 -7 -22 -21 -66 -31 -97 -9 -32 -21 -58 -26 -58 -38 0 -206 107 -256 164
-44 50 -47 74 -29 201 25 162 23 467 -3 620 -23 136 -49 240 -95 385 -57 178
-116 372 -132 430 -8 30 -19 61 -25 68 -6 6 -8 12 -4 12 3 0 -1 17 -9 38 -9
20 -34 111 -56 202 -21 91 -48 203 -60 250 -20 82 -36 167 -58 317 -14 91 -14
551 -1 646 11 79 14 89 60 255 76 270 206 489 415 697 69 70 198 179 246 210
9 6 42 28 75 50 69 46 342 185 365 185 8 0 19 4 25 9 27 28 274 81 524 115
127 17 166 18 250 7z"/>
<path d="M6943 8244 c-39 -39 -28 -85 47 -194 62 -91 122 -211 140 -278 5 -21
19 -71 31 -112 26 -92 28 -273 5 -397 -23 -127 -91 -270 -182 -383 -27 -34
-235 -240 -293 -290 -45 -39 -181 -160 -233 -209 -71 -65 -151 -168 -187 -238
-33 -67 -71 -217 -71 -284 0 -60 28 -159 57 -201 46 -68 142 -75 188 -14 14
18 36 75 50 129 50 187 155 322 435 561 198 169 368 358 424 471 66 137 116
315 130 471 7 68 -8 233 -30 344 -44 216 -137 391 -293 553 -94 98 -167 122
-218 71z"/>
<path d="M4589 4782 c-101 -44 -125 -166 -58 -293 39 -72 90 -119 232 -212
234 -154 360 -218 617 -312 107 -39 241 -72 410 -102 149 -26 570 -26 715 0
128 23 218 66 258 123 30 43 44 105 33 148 -12 47 -64 95 -121 111 -48 14 -65
14 -206 -4 -243 -31 -344 -35 -528 -16 -198 20 -284 39 -460 99 -233 81 -474
216 -675 379 -93 76 -164 102 -217 79z"/>
<path d="M4534 4289 c-85 -24 -114 -154 -63 -275 43 -100 238 -255 483 -384
107 -56 301 -140 326 -140 6 0 32 -8 58 -19 137 -54 301 -81 538 -88 381 -10
600 34 683 138 46 56 54 134 22 197 -40 79 -105 92 -311 62 -293 -42 -518 -36
-736 21 -305 79 -501 184 -819 439 -69 55 -116 68 -181 49z"/>
<path d="M4677 3630 c-14 -16 -28 -43 -32 -59 -20 -94 133 -410 314 -645 26
-35 56 -87 65 -117 33 -99 93 -159 178 -178 72 -17 128 3 213 73 52 44 67 51
180 86 79 24 269 119 360 179 95 62 180 149 200 204 24 63 9 118 -38 148 -27
17 -43 19 -112 15 -221 -15 -399 -18 -458 -7 -258 50 -429 117 -610 240 -118
81 -139 91 -189 91 -39 0 -50 -5 -71 -30z"/>
</g>
</svg>
